<svg width="102" height="96" viewBox="0 0 102 96" fill="none" xmlns="http://www.w3.org/2000/svg">
<path fill-rule="evenodd" clip-rule="evenodd" d="M51.4602 2.882C51.4602 4.468 52.3509 6.32 53.4395 7C54.528 7.68 55.4187 6.382 55.4187 4.118C55.4187 1.854 54.528 0 53.4395 0C52.3509 0 51.4602 1.296 51.4602 2.882ZM36.891 7.388C34.5258 9.778 35.6144 14 38.5952 14C40.228 14 41.564 12.704 41.564 11.118C41.564 7.776 38.7396 5.522 36.891 7.388ZM66.257 8.078C64.2619 11.338 68.6934 15.386 71.3357 12.716C72.7687 11.268 72.5193 9.892 70.5223 8.218C68.3966 6.436 67.2842 6.398 66.257 8.078ZM51.4602 13.882C51.4602 14.918 52.3509 16.32 53.4395 17C54.528 17.68 55.4187 16.832 55.4187 15.118C55.4187 13.404 54.528 12 53.4395 12C52.3509 12 51.4602 12.846 51.4602 13.882ZM81.4081 14.684C80.1968 16.16 79.7831 17.952 80.4897 18.666C81.9741 20.168 87.0865 16.362 87.0865 13.756C87.0865 11.122 83.9059 11.642 81.4081 14.684ZM13.1956 19.334C12.4692 20.066 11.8754 27.266 11.8754 35.334C11.8754 47.038 12.4751 50 14.8443 50C16.493 50 17.8132 48.222 17.8132 46C17.8132 43.5 19.1333 42 21.3303 42C32.4476 42 38.0133 27.316 29.2472 21.114C24.7662 17.94 15.5806 16.922 13.1956 19.334ZM71.2526 23C71.2526 25.166 69.0537 26 63.3356 26H55.4187V36.146C55.4187 44.716 55.9551 46.19 58.8665 45.622C60.9111 45.224 62.732 42.526 63.3356 39C64.6241 31.486 71.2526 29.354 71.2526 36.454C71.2526 39.064 72.3214 42.28 73.6277 43.6C76.9706 46.978 83.128 46.588 83.128 43C83.128 41.35 82.2374 40 81.1488 40C78.7044 40 78.5144 32.646 80.9192 31.144C83.6525 29.436 87.4586 40.808 86.0514 46.474C84.7075 51.88 86.8035 54.65 90.4908 52.346C91.716 51.58 94.1821 46.916 95.9713 41.978C101.499 26.722 101.61 26 98.4157 26C96.7709 26 94.8234 27.576 94.0851 29.5C92.8243 32.784 92.573 32.77 90.0099 29.25C88.4423 27.098 85.9841 26 84.2423 26.674C82.4056 27.388 80.3888 26.304 79.13 23.926C76.6856 19.31 71.2526 18.672 71.2526 23ZM26.7197 30C26.7197 31.65 24.7167 33.288 22.2664 33.64C18.8384 34.13 17.8132 33.292 17.8132 30C17.8132 26.708 18.8384 25.87 22.2664 26.36C24.7167 26.712 26.7197 28.35 26.7197 30ZM36.9999 27.278C34.8742 29.426 37.5937 31.992 42.1756 32.158C46.0767 32.3 45.9837 32.512 41.2394 34.268C34.6486 36.706 32.8969 40.958 36.8435 44.944C39.5808 47.71 46.7635 47.548 51.955 44.606C54.1164 43.38 53.772 34.364 51.3909 29.868C49.4077 26.126 39.8441 24.404 36.9999 27.278ZM0 40C0 41.1 0.890658 42 1.97924 42C3.06782 42 3.95848 41.1 3.95848 40C3.95848 38.9 3.06782 38 1.97924 38C0.890658 38 0 38.9 0 40ZM44.9861 39.208C44.329 39.872 42.6209 39.944 41.1939 39.366C39.6145 38.728 40.0835 38.254 42.3894 38.158C44.4755 38.072 45.6432 38.544 44.9861 39.208ZM20.2001 64.5C20.7662 78.618 23.5906 83.208 25.8093 73.618C26.5456 70.432 28.5406 68.804 32.2418 68.368C36.8138 67.828 37.6055 68.474 37.6055 72.75C37.6055 75.508 38.5952 78.382 39.8065 79.138C43.6046 81.51 45.5759 75.442 45.0455 63C44.6556 53.896 43.8164 51 41.564 51C39.7807 51 38.3398 53.244 37.9578 56.618C37.4136 61.408 36.5368 62.146 32.0201 61.618C27.8974 61.138 26.5812 59.778 26.0943 55.5C25.7261 52.268 24.2615 50 22.5435 50C20.1783 50 19.731 52.778 20.2001 64.5ZM72.1571 54.632C71.5238 57.18 71.2843 63.706 71.6247 69.132C72.1809 78.024 72.7311 79.042 77.1903 79.416C85.8356 80.144 90.2988 78.246 92.7531 72.802C95.8862 65.856 91.2785 58 84.0721 58C80.4897 58 79.1696 56.924 79.1696 54C79.1696 48.456 73.5644 48.962 72.1571 54.632ZM7.29943 53.292C4.71653 55.9 5.94959 58 10.0605 58C12.3643 58 13.8388 56.952 13.4014 55.626C12.4375 52.702 9.13221 51.438 7.29943 53.292ZM96.1871 53.472C94.0633 55.618 94.9401 58 97.8556 58C99.4251 58 101.2 57.194 101.802 56.21C103.061 54.15 97.9703 51.668 96.1871 53.472ZM48.8635 59.292C46.4349 61.744 47.4226 70.994 50.5992 75.58C53.0159 79.066 55.3019 79.924 60.9902 79.482L68.2837 78.918V69.126C68.2837 63.07 67.3396 59.016 65.8097 58.5C64.3807 58.018 63.3356 59.356 63.3356 61.67C63.3356 72.726 56.0817 76.214 55.0486 65.654C54.4449 59.462 51.5948 56.532 48.8635 59.292ZM86.7362 68.666C87.1677 70.914 86.0395 72 83.2725 72C81.0162 72 79.1696 70.8 79.1696 69.334C79.1696 63.208 85.5803 62.642 86.7362 68.666ZM35.9766 87.106C36.8712 91.45 40.3844 91.716 41.188 87.5C41.6036 85.31 40.6338 84 38.5952 84C36.6931 84 35.6026 85.294 35.9766 87.106ZM66.3045 86C64.1729 89.484 67.3317 92.458 70.4174 89.87C71.9414 88.592 72.6994 86.748 72.1037 85.774C70.6588 83.412 67.8186 83.524 66.3045 86ZM52.7804 87.334C50.7259 89.408 51.2286 96 53.4395 96C54.528 96 55.4187 93.75 55.4187 91C55.4187 85.764 54.9615 85.128 52.7804 87.334Z" fill="white"/>
</svg>
